<svg xmlns="http://www.w3.org/2000/svg" viewBox="0 0 64 64" fill="none">
  <defs>
    <radialGradient id="orb" cx=".42" cy=".35" r=".75">
      <stop offset="0" stop-color="#76d3ff"/>
      <stop offset=".45" stop-color="#1e8ae0"/>
      <stop offset=".8" stop-color="#0a5cad"/>
      <stop offset="1" stop-color="#023a75"/>
    </radialGradient>
    <radialGradient id="sheen" cx=".5" cy=".2" r=".6">
      <stop offset="0" stop-color="#ffffff" stop-opacity=".95"/>
      <stop offset="1" stop-color="#ffffff" stop-opacity="0"/>
    </radialGradient>
  </defs>
  <circle cx="32" cy="32" r="30" fill="url(#orb)" stroke="#cfeaff" stroke-width="2.5"/>
  <circle cx="32" cy="32" r="30" fill="url(#sheen)"/>
  <g transform="translate(32 32) scale(1.18) translate(-32 -32)">
    <path d="M20.4 24.6Q26.4 21.8 32.4 22.6L32.4 31.1Q26.4 30.3 20.4 33.1Z" fill="#f25022"/>
    <path d="M34.2 22.8Q40.2 23.6 46.2 22.4L46.2 30.9Q40.2 32.1 34.2 31.3Z" fill="#7fba00"/>
    <path d="M20.4 34.9Q26.4 32.1 32.4 32.9L32.4 41.4Q26.4 40.6 20.4 43.4Z" fill="#00a4ef"/>
    <path d="M34.2 33.1Q40.2 33.9 46.2 32.7L46.2 41.2Q40.2 42.4 34.2 41.6Z" fill="#ffb900"/>
  </g>
</svg>
